<?xml version="1.0" standalone="no"?>
<!DOCTYPE svg PUBLIC "-//W3C//DTD SVG 20010904//EN"
 "http://www.w3.org/TR/2001/REC-SVG-20010904/DTD/svg10.dtd">
<svg version="1.0" xmlns="http://www.w3.org/2000/svg"
 width="99.000000pt" height="99.000000pt" viewBox="0 0 99.000000 99.000000"
 preserveAspectRatio="xMidYMid meet">

<g transform="translate(0.000000,99.000000) scale(0.100000,-0.100000)"
fill="#000000" stroke="none">
<path d="M30 814 l0 -115 150 3 c145 3 149 2 154 -18 8 -29 35 -40 33 -13 -1
11 -7 17 -14 15 -8 -3 -13 2 -13 13 0 14 5 18 20 14 11 -3 20 -12 20 -19 0
-30 18 -12 24 24 3 21 15 47 26 57 20 18 21 18 35 -1 18 -24 18 -31 0 -38 -12
-4 -10 -10 10 -32 14 -15 24 -37 24 -48 -4 -45 1 -86 11 -86 6 0 10 7 10 15 0
17 16 20 25 5 3 -5 1 -10 -5 -10 -6 0 -10 -7 -8 -17 2 -11 -7 -19 -30 -25 -21
-6 -36 -18 -42 -34 -26 -66 -88 -22 -97 69 l-6 57 -93 0 c-78 0 -103 4 -150
25 -31 14 -63 25 -70 25 -12 0 -14 -58 -14 -340 l0 -340 351 0 c321 0 351 1
345 16 -5 14 -4 15 8 5 22 -19 59 -9 73 19 7 14 13 19 13 12 0 -7 -5 -22 -10
-33 -10 -17 -7 -19 24 -19 l35 0 1 315 0 315 -115 0 c-75 0 -114 4 -110 10 4
6 53 10 116 10 89 0 109 3 109 15 0 12 -22 15 -112 18 l-113 3 113 2 112 2 0
120 0 120 -420 0 -420 0 0 -116z m549 -144 c1 -3 -8 -6 -19 -6 -11 0 -20 4
-20 8 0 4 5 8 10 8 6 0 9 3 9 8 -3 20 3 25 11 7 5 -11 9 -22 9 -25z m-235
-124 c-4 -9 20 -42 60 -85 62 -66 78 -91 57 -91 -15 0 -33 29 -26 42 3 7 -2 3
-11 -10 l-17 -23 -38 68 c-37 66 -49 113 -29 113 5 0 7 -7 4 -14z m246 -81
c-6 -7 -7 -20 -4 -29 7 -19 -22 -56 -44 -56 -13 0 -12 3 2 19 10 10 18 34 19
53 2 28 6 34 20 30 13 -3 15 -8 7 -17z m98 -92 c15 -45 -4 -42 -23 3 -20 47
-21 77 -2 49 8 -11 19 -35 25 -52z m-217 -13 c8 13 11 13 22 -2 9 -11 21 -15
35 -11 16 4 22 1 22 -11 0 -10 4 -15 9 -12 13 8 21 -19 20 -62 l-1 -37 -11 43
c-5 23 -14 42 -19 42 -4 0 -6 -11 -2 -25 4 -18 1 -32 -11 -45 -36 -40 -42 -63
-25 -92 8 -16 18 -28 21 -28 4 0 16 18 27 40 l19 40 6 -34 c3 -18 3 -61 0 -94
-5 -57 -7 -59 -23 -44 -9 10 -20 30 -24 46 -6 25 -9 27 -24 14 -26 -22 -45
-12 -69 37 -20 39 -21 50 -12 98 6 37 6 69 0 98 -14 61 -14 65 10 43 17 -16
22 -16 30 -4z m249 -42 c0 -10 3 -10 9 0 6 10 12 5 20 -20 14 -40 14 -43 -1
-43 -7 0 -13 -5 -13 -12 0 -6 -3 -15 -7 -19 -5 -4 -8 0 -8 9 0 9 -5 19 -11 23
-9 5 -10 -1 -5 -22 10 -39 11 -39 35 -15 20 20 51 29 51 15 0 -4 -8 -13 -17
-20 -16 -12 -15 -13 10 -14 33 0 36 -17 5 -23 l-23 -4 22 -8 c12 -4 25 -15 28
-25 7 -23 -31 -110 -49 -110 -8 0 -26 14 -40 31 -22 26 -26 41 -27 97 -1 37
-3 91 -4 120 -1 38 2 52 11 52 8 0 14 -6 14 -12z m80 -34 c0 -8 -5 -12 -10 -9
-6 4 -8 11 -5 16 9 14 15 11 15 -7z m-193 -146 c-3 -8 -6 -5 -6 6 -1 11 2 17
5 13 3 -3 4 -12 1 -19z m10 -80 c-3 -8 -6 -5 -6 6 -1 11 2 17 5 13 3 -3 4 -12
1 -19z"/>
<path d="M461 283 c-1 -18 4 -33 9 -33 12 0 12 17 0 45 -7 17 -9 15 -9 -12z"/>
<path d="M720 270 c0 -5 4 -10 9 -10 6 0 13 5 16 10 3 6 -1 10 -9 10 -9 0 -16
-4 -16 -10z"/>
<path d="M770 130 c0 -5 7 -10 15 -10 8 0 15 5 15 10 0 6 -7 10 -15 10 -8 0
-15 -4 -15 -10z"/>
<path d="M740 110 c0 -5 5 -10 10 -10 6 0 10 5 10 10 0 6 -4 10 -10 10 -5 0
-10 -4 -10 -10z"/>
</g>
</svg>
