<?xml version="1.0" standalone="no"?>
<!DOCTYPE svg PUBLIC "-//W3C//DTD SVG 20010904//EN"
 "http://www.w3.org/TR/2001/REC-SVG-20010904/DTD/svg10.dtd">
<svg version="1.0" xmlns="http://www.w3.org/2000/svg"
 width="500.000000pt" height="500.000000pt" viewBox="0 0 500.000000 500.000000"
 preserveAspectRatio="xMidYMid meet">
<metadata>
Created by potrace 1.15, written by Peter Selinger 2001-2017
</metadata>
<g transform="translate(0.000000,500.000000) scale(0.100000,-0.100000)"
fill="#000000" stroke="none">
<path d="M2366 4644 c-39 -8 -80 -11 -92 -8 -22 6 -113 -38 -147 -69 -19 -18
-112 -82 -114 -79 -8 7 -22 -1 -50 -27 -17 -16 -51 -38 -76 -50 -74 -36 -197
-168 -197 -213 0 -10 -5 -18 -11 -18 -6 0 -9 -6 -7 -12 3 -7 -1 -23 -8 -36 -7
-14 -10 -30 -8 -37 3 -7 1 -16 -5 -20 -6 -3 -11 -17 -11 -31 0 -13 -5 -24 -11
-24 -6 0 -9 -6 -6 -14 3 -8 3 -17 -1 -21 -4 -4 -7 -16 -8 -28 -1 -12 -4 -30
-9 -39 -4 -10 -4 -25 -1 -34 3 -8 2 -23 -3 -32 -10 -20 6 -203 20 -216 5 -6 9
-21 9 -34 l0 -24 35 31 c20 17 44 31 55 31 26 0 42 33 42 82 -1 10 9 23 21 30
19 9 20 9 11 -3 -16 -20 -14 -51 3 -45 16 6 16 1 3 -25 -22 -40 30 -34 80 9
11 8 29 17 41 19 11 2 29 8 38 14 12 7 8 8 -16 4 -27 -5 -32 -4 -27 9 3 8 14
18 25 21 10 4 19 10 19 15 0 5 13 16 29 25 19 10 29 22 28 35 -1 21 -21 22
-23 2 -1 -7 -2 -16 -3 -22 0 -5 -7 -10 -15 -10 -8 0 -22 -7 -30 -16 -9 -8 -21
-12 -26 -9 -6 4 -21 0 -34 -8 -20 -14 -23 -13 -34 4 -9 15 -9 20 4 27 32 18
11 31 -28 17 -21 -7 -38 -9 -38 -5 0 4 10 10 23 14 17 5 19 8 8 15 -11 7 -10
12 8 22 11 8 21 21 21 29 0 9 18 27 40 40 38 24 50 40 31 40 -5 0 -24 -12 -41
-26 -23 -20 -34 -24 -42 -16 -9 9 -7 17 6 31 10 11 21 20 25 19 3 -1 20 2 37
6 30 7 61 47 49 65 -2 5 18 8 45 7 28 -1 46 2 43 8 -3 5 -1 6 4 3 6 -4 32 4
57 18 55 29 60 30 52 9 -4 -10 -1 -14 6 -11 7 2 13 10 14 18 0 8 4 21 7 29 3
8 7 29 9 45 3 31 23 45 123 86 35 14 192 43 220 40 6 -1 29 -2 53 -4 23 -1 46
-7 50 -13 4 -6 14 -11 22 -12 43 -3 100 -16 100 -23 0 -4 9 -11 20 -14 11 -3
26 -12 33 -18 19 -17 55 -37 68 -37 7 0 22 -11 34 -24 16 -17 30 -23 44 -19
12 3 21 1 21 -6 0 -6 9 -11 20 -11 20 0 58 -35 52 -47 -2 -3 1 -9 6 -12 20
-13 102 -199 102 -233 0 -10 -41 -10 -56 0 -6 4 -17 18 -24 32 l-14 25 -6 -25
c-4 -18 -14 -26 -32 -28 -15 -2 -48 -25 -79 -55 -48 -46 -54 -56 -53 -92 2
-75 54 -151 136 -197 22 -12 37 -14 55 -7 13 5 37 9 54 9 24 0 31 6 44 36 9
22 13 54 10 85 -5 47 -4 49 21 49 l26 0 -7 68 c-7 72 -34 174 -45 167 -3 -2
-14 26 -24 63 -21 82 -20 179 3 192 14 8 14 11 -4 24 -11 8 -17 18 -12 22 4 4
0 16 -10 26 -10 11 -12 18 -4 18 17 0 3 50 -22 78 -11 12 -15 22 -9 22 19 0
14 13 -20 50 -18 19 -33 38 -34 43 -1 4 -2 12 -3 17 0 6 -7 10 -15 10 -9 0
-16 12 -18 27 -3 24 -13 32 -73 58 -38 17 -87 40 -107 53 -29 18 -52 23 -107
23 -48 0 -76 5 -85 15 -20 20 -190 24 -280 8z"/>
<path d="M2553 3912 c-28 -3 -57 -32 -32 -32 6 0 7 -5 4 -10 -4 -7 -13 -7 -25
0 -16 9 -18 8 -13 -6 4 -10 14 -14 30 -11 18 3 29 -3 44 -25 l21 -29 -21 -23
c-12 -12 -46 -30 -77 -40 -30 -10 -71 -27 -91 -39 -32 -18 -34 -22 -17 -28 27
-11 46 -11 39 0 -9 16 48 18 90 2 58 -20 63 -29 27 -42 -45 -16 -40 -25 18
-33 27 -4 52 -11 55 -16 20 -32 108 32 125 90 14 50 13 55 -20 92 -20 22 -26
34 -18 37 22 7 48 39 43 53 -13 32 -116 67 -182 60z"/>
<path d="M2950 3320 c-30 -17 -64 -30 -74 -30 -16 0 -17 -3 -8 -12 7 -7 22
-13 35 -13 15 0 22 -6 22 -20 0 -11 11 -26 24 -32 31 -17 36 -16 20 3 -10 13
-10 17 2 25 20 12 45 11 56 -3 14 -19 10 -61 -7 -80 -14 -15 -16 -15 -33 0
-13 12 -41 17 -98 19 -69 2 -91 -2 -154 -28 -84 -33 -95 -35 -95 -14 0 19 -34
19 -54 0 -13 -13 -15 -13 -19 3 -3 9 -5 -1 -6 -23 -1 -22 -6 -60 -11 -85 -4
-25 -6 -47 -4 -50 3 -2 22 14 42 37 32 35 42 40 69 36 21 -4 38 0 48 11 17 17
54 19 120 8 28 -5 43 -14 52 -32 9 -18 13 -20 13 -7 0 9 5 17 11 17 7 0 9 -9
6 -21 -4 -15 0 -23 14 -26 38 -10 19 -26 -25 -21 -24 3 -51 1 -60 -4 -16 -9
-16 -11 1 -25 17 -14 17 -14 -4 -10 -24 5 -35 -5 -40 -35 -3 -16 6 -18 61 -18
88 0 120 13 114 45 -3 14 1 30 8 36 10 8 15 5 20 -15 3 -13 3 -30 -1 -36 -4
-6 0 -17 9 -23 27 -20 26 -72 -2 -112 -14 -19 -28 -32 -31 -28 -3 5 -17 10
-31 11 -14 2 -26 8 -28 13 -2 5 -21 9 -43 9 -31 0 -42 -5 -56 -27 -10 -16 -23
-34 -30 -41 -6 -6 -14 -21 -18 -31 -3 -11 -22 -27 -41 -36 -37 -17 -56 -46
-36 -53 18 -6 14 -39 -5 -46 -9 -4 -44 -9 -77 -13 -34 -3 -66 -10 -72 -14 -6
-5 -14 -6 -17 -2 -4 3 -7 1 -7 -5 0 -7 -7 -12 -16 -12 -9 0 -12 -5 -8 -12 4
-7 3 -8 -5 -4 -7 5 -23 -5 -40 -23 -16 -17 -34 -31 -40 -31 -6 0 -11 -4 -11
-8 0 -5 -12 -12 -27 -18 -23 -8 -28 -16 -29 -44 -2 -45 -13 -92 -24 -104 -16
-16 -95 -7 -146 18 -74 36 -193 135 -256 213 -84 104 -88 112 -88 169 0 75 -6
84 -51 84 -52 0 -57 -17 -23 -72 55 -87 147 -189 357 -393 201 -197 216 -213
231 -264 9 -30 16 -65 16 -77 0 -12 6 -26 13 -31 17 -15 66 -22 73 -11 3 4 0
7 -8 6 -8 -2 -13 8 -14 27 -1 43 4 47 29 25 12 -11 27 -18 35 -15 10 4 11 -1
6 -18 -4 -12 -11 -25 -16 -28 -6 -4 -4 -18 6 -35 8 -16 30 -59 48 -96 35 -71
48 -83 48 -44 0 35 57 193 91 251 33 57 57 85 84 101 36 20 56 70 60 141 1 38
10 87 20 111 17 42 17 42 -9 76 -32 43 -32 45 0 115 17 39 35 63 57 76 18 10
48 31 68 46 l35 28 18 -67 c10 -37 20 -85 23 -107 3 -22 9 -45 14 -51 5 -6 25
-42 44 -81 47 -95 58 -103 89 -66 17 19 21 30 13 35 -7 4 -9 8 -4 8 9 0 -22
62 -36 71 -5 4 8 18 29 33 39 26 60 33 50 17 -8 -12 32 -101 45 -101 6 0 19 5
29 10 13 7 21 7 25 0 4 -7 13 -7 26 0 24 14 49 1 25 -12 -9 -5 -21 -6 -26 -3
-6 3 -10 1 -10 -5 0 -6 -11 -8 -27 -5 -26 6 -26 5 8 -17 22 -14 34 -29 31 -38
-4 -12 -1 -11 15 3 22 20 33 14 33 -19 0 -31 20 -41 37 -19 7 11 13 15 13 9 0
-5 9 -15 21 -22 20 -13 21 -12 14 20 -7 29 -6 31 9 19 9 -7 16 -21 16 -30 0
-9 10 -27 21 -41 13 -15 19 -18 15 -8 -19 62 -30 118 -42 232 -8 72 -16 146
-18 164 -3 19 -11 41 -19 50 -7 10 -30 53 -51 97 -44 95 -57 111 -104 126 -27
9 -54 9 -119 -1 -46 -7 -85 -11 -88 -8 -3 2 5 15 16 27 18 19 19 25 8 32 -11
6 -9 13 11 33 21 23 20 31 -2 27 -13 -2 -9 17 5 22 8 2 12 28 12 83 0 63 -5
88 -22 122 -13 23 -23 49 -23 56 0 13 -14 44 -33 74 -7 11 -12 11 -25 0 -12
-10 -16 -10 -19 0 -6 16 -10 16 -73 -18z m-205 -1048 c-4 -20 -10 -39 -14 -42
-8 -6 -52 -76 -71 -114 -8 -16 -37 -51 -63 -78 -39 -40 -53 -49 -72 -44 -13 3
-27 2 -30 -4 -7 -11 -55 -10 -55 2 0 4 7 8 15 8 21 0 19 8 -14 41 -20 19 -31
25 -34 16 -3 -6 -6 -1 -6 14 -1 14 -5 29 -9 35 -14 16 -36 94 -28 101 4 4 37
11 74 15 37 4 74 9 84 11 27 5 47 27 41 44 -5 13 -1 15 28 9 68 -15 89 -10
116 23 23 27 28 30 36 16 5 -9 6 -33 2 -53z"/>
<path d="M1590 2613 c-73 -92 -150 -177 -173 -190 -46 -26 -224 -80 -442 -134
-114 -28 -335 -96 -345 -106 -2 -2 2 -8 10 -13 13 -8 12 -10 -2 -10 -10 0 -18
6 -18 13 0 6 -5 4 -11 -6 -6 -9 -7 -27 -4 -38 10 -30 -13 -41 -46 -24 -14 8
-30 11 -34 7 -5 -4 -5 1 -2 10 5 14 2 16 -17 8 -13 -5 -26 -7 -28 -4 -9 8
-121 -18 -145 -33 -39 -26 -63 -84 -63 -152 0 -33 4 -63 10 -66 6 -4 10 6 10
24 0 39 11 66 20 51 4 -6 7 3 7 20 0 20 -3 26 -9 18 -6 -10 -8 -8 -8 5 0 9 4
17 8 17 5 0 16 18 26 41 13 29 21 38 29 30 15 -15 27 -14 27 4 0 14 36 22 65
15 6 -1 19 -3 30 -5 11 -1 20 -3 20 -4 0 -2 11 -4 25 -7 14 -2 30 -11 36 -19
6 -8 14 -12 17 -8 4 3 7 -1 7 -11 0 -9 5 -14 10 -11 6 3 10 -3 10 -14 0 -11 9
-22 20 -26 13 -4 20 -15 20 -31 0 -13 5 -24 11 -24 6 0 9 -6 6 -14 -4 -10 3
-17 21 -21 19 -4 28 -12 29 -28 1 -12 7 -23 13 -25 5 -2 10 -10 10 -18 0 -9 5
-12 11 -9 6 4 10 1 8 -6 -1 -8 -1 -25 0 -39 1 -21 3 -22 12 -10 9 12 10 11 6
-5 -3 -11 -8 -28 -12 -37 -6 -14 -2 -18 15 -18 16 0 20 -4 16 -16 -3 -9 -6
-18 -6 -20 0 -3 -5 -2 -10 1 -6 3 -10 1 -10 -4 0 -6 15 -12 33 -12 l32 -2 -31
-6 c-29 -6 -32 -9 -29 -43 1 -21 -2 -35 -7 -32 -4 3 -8 12 -8 21 0 9 -6 13
-15 10 -8 -4 -17 -2 -21 4 -3 6 4 13 16 16 16 4 18 8 8 14 -11 8 -11 10 1 18
9 6 5 10 -17 13 -36 5 -71 -5 -54 -16 7 -4 17 -4 22 -1 6 3 10 -4 10 -18 0
-20 -4 -23 -25 -19 -19 3 -25 11 -25 29 0 13 -4 22 -10 18 -5 -3 -6 -13 -3
-22 7 -17 -5 -13 -36 11 -7 5 -19 11 -26 12 -7 1 -22 5 -34 9 -11 3 -21 4 -21
1 0 -9 44 -52 73 -71 15 -9 27 -23 27 -31 0 -8 8 -11 20 -9 12 2 23 -2 27 -10
3 -8 9 -12 14 -9 5 3 6 -2 3 -11 -4 -9 -20 -19 -36 -22 -19 -4 -33 -15 -39
-29 -8 -23 -5 -35 22 -99 13 -31 19 -76 8 -70 -5 4 -9 -2 -9 -12 0 -14 -12
-22 -46 -31 -63 -17 -134 -50 -134 -63 0 -6 -5 -7 -10 -4 -17 11 -35 -11 -38
-46 -2 -27 0 -31 18 -26 15 4 20 0 20 -14 0 -10 9 -23 20 -29 11 -6 17 -16 14
-22 -4 -7 -3 -8 4 -4 7 4 12 0 13 -11 0 -16 1 -16 8 2 7 18 9 16 15 -12 4 -18
4 -38 0 -44 -5 -9 -2 -10 11 -5 11 4 22 1 28 -6 6 -9 7 -8 3 5 -5 16 -1 19 34
21 8 1 16 11 18 22 2 17 8 21 24 16 14 -3 19 -1 14 6 -4 7 -2 12 3 12 6 0 11
7 11 16 0 8 5 12 11 9 6 -4 8 -13 5 -21 -3 -8 -1 -14 4 -14 6 0 10 10 10 23 0
18 2 19 10 7 8 -12 10 -10 11 10 1 17 3 19 6 8 2 -10 9 -18 14 -18 5 0 9 8 9
18 0 14 2 15 10 2 8 -13 11 -12 23 4 17 23 47 15 47 -13 0 -11 4 -22 8 -25 5
-3 9 -26 9 -52 1 -26 -3 -41 -7 -34 -5 8 -9 5 -13 -9 -3 -12 -1 -19 4 -15 5 3
9 1 9 -5 0 -5 -5 -11 -12 -13 -6 -2 -13 -14 -14 -26 -3 -15 0 -20 11 -16 10 4
15 0 15 -13 0 -10 5 -24 12 -31 9 -9 9 -12 0 -12 -7 0 -12 -10 -12 -22 0 -19
-2 -20 -11 -8 -8 11 -12 12 -16 2 -2 -6 -9 -10 -14 -6 -5 3 -9 0 -9 -5 0 -6
-13 -11 -30 -11 -27 0 -30 -3 -30 -31 0 -19 -7 -37 -17 -45 -10 -7 -18 -16
-18 -21 0 -9 -36 -53 -71 -87 -11 -12 -29 -35 -39 -53 -10 -18 -22 -30 -27
-27 -4 3 -8 1 -8 -4 0 -4 -22 -32 -50 -60 -27 -29 -50 -55 -50 -58 0 -3 -13
-25 -30 -49 -16 -24 -30 -50 -30 -57 0 -8 -4 -18 -9 -24 -4 -5 -11 -21 -15
-36 -5 -22 -3 -26 9 -22 8 4 15 10 15 15 0 5 6 9 13 9 7 0 20 8 28 18 28 31
84 78 102 85 9 3 17 11 17 17 0 6 4 9 9 5 5 -3 12 -1 16 5 4 6 10 8 15 5 4 -3
10 2 14 10 3 8 14 15 25 15 11 0 21 3 23 8 2 4 19 14 38 23 111 51 136 64 150
75 8 6 25 14 38 17 36 9 29 -31 -8 -44 -16 -6 -30 -15 -30 -21 0 -5 -4 -6 -10
-3 -5 3 -10 2 -10 -3 0 -5 -26 -23 -57 -40 -81 -43 -135 -92 -164 -149 -23
-45 -110 -162 -171 -228 -15 -17 -28 -33 -28 -37 0 -12 38 -10 45 2 3 6 11 10
16 10 6 0 7 -5 3 -12 -4 -7 -3 -8 5 -4 6 4 9 11 6 16 -3 4 16 24 42 44 27 19
65 50 85 67 46 40 62 32 18 -8 -29 -25 -80 -100 -80 -116 0 -4 14 -7 30 -7 17
0 30 3 30 8 0 4 12 20 26 37 l26 30 -21 -32 c-26 -39 -26 -43 -1 -43 12 0 27
13 39 37 24 45 62 88 113 126 39 29 43 19 11 -28 -27 -40 -12 -38 32 5 25 25
51 59 57 77 7 18 18 33 26 33 16 0 5 -19 -54 -97 -22 -29 -34 -56 -34 -76 0
-18 -2 -41 -4 -52 -2 -11 -1 -15 1 -8 3 8 11 7 31 -3 32 -17 82 -18 82 -3 0 6
18 51 40 100 22 49 43 113 46 144 4 30 13 60 20 66 16 13 54 2 54 -16 0 -13
29 -25 63 -25 10 0 34 -16 54 -36 20 -20 53 -44 74 -54 22 -9 64 -43 95 -76
35 -37 58 -54 61 -46 3 7 10 18 17 25 7 7 16 26 20 42 8 32 29 84 52 127 16
29 20 106 9 156 -5 23 -3 32 7 32 10 0 10 2 0 8 -10 7 -8 15 9 35 11 15 25 25
30 22 5 -4 6 1 3 9 -8 22 75 109 98 103 10 -3 18 0 18 6 0 8 3 8 11 0 8 -8 20
-8 34 -3 13 5 25 7 28 4 2 -3 23 -7 46 -10 23 -3 53 -9 67 -14 18 -7 24 -6 24
4 0 26 -12 45 -25 40 -15 -6 -30 30 -20 46 4 6 14 9 22 8 9 -2 18 3 20 10 3 8
-1 10 -14 6 -14 -6 -16 -4 -6 6 6 7 23 13 37 13 14 0 24 3 21 6 -2 4 32 25 76
47 98 47 106 56 85 86 -23 32 -20 66 8 99 19 22 24 40 25 83 0 30 9 90 20 133
10 43 24 110 31 149 l11 71 -81 219 c-45 120 -106 269 -135 329 -29 61 -61
128 -71 150 -9 22 -43 85 -74 140 -110 192 -202 377 -197 396 9 32 -6 21 -53
-38z m-165 -2173 c3 -5 15 -10 26 -10 21 0 24 -11 10 -38 -22 -42 -45 -98 -43
-107 2 -14 -50 -88 -67 -93 -12 -4 -13 10 -7 89 5 52 8 108 8 124 -1 17 1 25
4 18 4 -8 11 -6 25 8 21 21 35 24 44 9z"/>
<path d="M2950 2246 c0 -4 10 -24 22 -45 19 -34 21 -43 10 -77 -16 -56 -93
-161 -114 -156 -19 4 -57 -46 -42 -56 33 -24 74 -205 89 -392 7 -93 23 -166
33 -156 3 4 5 25 3 47 -2 38 -2 40 18 28 13 -9 25 -35 35 -82 17 -74 78 -536
96 -732 13 -136 38 -310 71 -497 l22 -128 239 0 c131 0 238 4 238 8 0 4 -14
30 -31 57 -54 85 -80 156 -93 255 -7 52 -20 109 -28 125 -36 70 -42 134 -28
338 7 107 10 203 6 213 -3 11 -11 53 -16 94 -5 41 -15 110 -20 152 -11 79 -2
118 26 118 12 0 7 47 -6 65 -7 9 -50 115 -50 123 0 2 5 0 10 -3 6 -3 10 3 10
14 0 12 5 21 12 21 6 0 3 7 -8 15 -14 11 -16 17 -6 23 9 7 8 13 -8 27 -14 13
-19 26 -16 41 4 13 2 34 -4 48 -11 30 -49 54 -60 37 -4 -7 -11 3 -17 23 -8 26
-8 36 0 39 7 2 0 17 -16 36 -15 18 -30 45 -33 59 -3 15 -20 55 -36 90 -16 34
-28 68 -25 75 6 17 -24 67 -41 67 -8 0 -60 18 -115 41 -56 23 -108 43 -114 46
-7 3 -13 2 -13 -1z"/>
<path d="M3665 1853 c18 -60 18 -58 -2 -42 -10 7 -7 0 7 -15 14 -16 19 -26 13
-22 -16 9 -16 -2 -2 -42 6 -17 18 -32 26 -34 10 -2 34 -54 67 -142 47 -129 76
-177 76 -128 0 40 -100 328 -131 376 -17 27 -35 60 -40 73 -17 44 -28 24 -14
-24z"/>
<path d="M3899 1298 c-19 -13 -47 -30 -62 -38 l-28 -14 21 -16 c12 -9 32 -15
43 -14 12 1 55 3 95 3 70 1 72 2 72 27 0 19 -8 28 -34 39 -19 8 -37 19 -41 25
-10 16 -29 12 -66 -12z"/>
<path d="M2850 1019 c-9 -20 -17 -25 -36 -21 -18 3 -26 -2 -35 -22 -7 -14 -18
-26 -25 -26 -16 0 -37 -37 -30 -53 2 -7 5 -3 5 7 1 11 3 17 6 14 16 -15 -10
-60 -42 -73 -22 -10 -37 -25 -45 -45 -9 -29 -12 -30 -27 -16 -21 19 -65 22
-58 4 2 -7 10 -12 16 -10 7 1 10 -2 6 -8 -5 -8 39 -81 76 -123 8 -11 116 122
145 180 12 23 32 56 44 73 18 25 20 34 10 43 -10 9 -11 9 -6 0 3 -6 2 -14 -4
-18 -14 -9 -12 8 6 54 18 46 13 81 -6 40z"/>
<path d="M2039 663 c-10 -11 -10 -14 -1 -9 7 4 12 2 12 -4 0 -6 5 -8 11 -4 7
4 10 0 7 -11 -1 -10 -11 -19 -21 -21 -9 -1 -15 2 -12 6 3 5 -4 14 -15 20 -13
7 -20 7 -20 0 0 -5 4 -10 8 -10 12 0 12 -39 0 -46 -7 -4 -8 -2 -4 4 4 7 5 12
2 12 -2 0 -12 3 -22 7 -14 5 -16 3 -11 -11 4 -10 3 -15 -3 -11 -6 3 -10 14
-10 25 0 24 -37 15 -45 -11 -3 -10 -8 -29 -11 -40 -4 -14 -2 -19 5 -15 6 4 11
1 11 -8 0 -8 5 -16 12 -18 8 -3 7 -14 -5 -37 -9 -19 -14 -38 -11 -43 3 -5 1
-21 -4 -36 -14 -38 -20 -56 -18 -62 0 -3 -7 -16 -17 -30 -9 -13 -17 -32 -17
-42 0 -10 -4 -18 -10 -18 -5 0 -10 -7 -10 -15 0 -8 -4 -15 -10 -15 -5 0 -10
-8 -10 -18 0 -17 -23 -84 -53 -153 -9 -20 -13 -39 -10 -43 4 -3 209 -6 456 -6
372 0 448 2 444 13 -25 66 -109 363 -100 354 11 -11 33 14 33 37 -1 17 -10 11
-51 -34 -28 -30 -71 -83 -96 -118 -26 -34 -50 -59 -53 -55 -10 11 -60 145 -60
160 0 6 10 14 23 16 20 4 19 4 -4 6 -34 1 -37 5 -93 141 -26 63 -53 126 -61
140 -13 24 -14 23 -10 -20 3 -34 1 -41 -6 -27 -6 9 -14 15 -20 12 -5 -4 -9 3
-9 13 0 14 -9 21 -31 26 -17 3 -36 3 -42 -1 -6 -3 -7 -1 -3 5 11 19 -20 14
-35 -5z"/>
<path d="M1675 558 c-2 -13 -7 -41 -9 -63 -5 -40 -24 -107 -44 -155 -5 -14
-20 -56 -33 -95 -24 -75 -33 -94 -88 -167 -20 -28 -38 -43 -42 -37 -3 6 -8 0
-11 -14 l-5 -25 126 -1 127 -2 12 83 c7 46 15 103 18 127 2 24 11 59 19 79 9
19 13 37 11 39 -2 3 7 26 20 53 36 72 32 97 -25 153 -54 53 -68 57 -76 25z"/>
<path d="M4118 455 c-4 -22 -10 -51 -13 -65 l-6 -25 12 25 11 25 9 -22 c20
-54 21 -119 1 -201 -20 -83 -28 -98 -77 -159 l-26 -31 170 -2 c163 -1 171 0
171 19 0 38 -40 112 -88 164 -56 59 -68 79 -88 146 -8 27 -25 64 -38 84 -14
19 -26 46 -28 59 -3 17 -5 12 -10 -17z"/>
<path d="M3575 314 c30 -79 47 -104 117 -170 43 -41 65 -54 109 -64 34 -7 63
-8 77 -3 21 8 18 11 -35 28 -92 30 -108 45 -218 195 -49 66 -60 80 -67 80 -4
0 3 -30 17 -66z"/>
<path d="M1090 180 c0 -5 -7 -10 -15 -10 -8 0 -15 -6 -15 -14 0 -7 -13 -43
-30 -79 -16 -37 -30 -69 -30 -72 0 -3 27 -5 60 -5 l60 0 1 33 c2 48 -2 120 -7
140 -6 18 -24 24 -24 7z"/>
</g>
</svg>
